<svg width="64" height="66" viewBox="0 0 64 66" fill="none" xmlns="http://www.w3.org/2000/svg">
<path d="M5.13139 27.0755C4.93861 22.7891 5.03705 18.1212 5.1478 12.9816C5.21753 9.73709 5.29136 6.29565 5.29136 2.27176C5.29136 1.4842 5.91074 0.848419 6.67368 0.848419C7.07566 0.848419 7.44072 1.0289 7.69504 1.31193C12.0471 5.38505 16.3622 7.14473 20.6486 7.00527C25.0007 6.86581 29.406 4.77387 33.8483 1.16016C34.3652 0.73767 35.0789 0.762281 35.567 1.17246C39.9313 4.72055 44.2588 6.38179 48.5616 6.32026C52.8849 6.26284 57.2452 4.47444 61.6382 1.13145C62.2494 0.663837 63.1108 0.795095 63.562 1.42678C63.7466 1.68109 63.8327 1.97642 63.8327 2.27176H63.8368C63.8368 5.60244 63.8819 8.31786 63.9189 10.943C64.2962 35.3818 64.5587 52.4003 35.2306 65.0421C34.8697 65.198 34.48 65.1816 34.1437 65.0298V65.0339C25.538 61.129 17.4943 56.3093 12.3178 49.7259C11.6984 50.739 10.5909 51.3912 9.35218 51.3912H3.47425C1.5587 51.3912 0 49.8325 0 47.917V30.5539C0 28.6383 1.5587 27.0755 3.47425 27.0755H5.13139ZM54.3329 12.1162C54.3329 11.3286 54.9687 10.6928 55.7562 10.6928C56.5438 10.6928 57.1796 11.3286 57.1796 12.1162C57.1796 12.231 57.2001 12.514 57.2329 12.9406C57.5569 17.6085 58.931 37.2563 51.0924 46.3993C50.5838 46.9981 49.6855 47.0679 49.0907 46.5551C48.496 46.0465 48.4262 45.1482 48.9349 44.5535C56.0146 36.2924 54.7061 17.5757 54.3944 13.1293C54.3575 12.6084 54.3329 12.2597 54.3329 12.1162ZM12.4162 45.9071C12.4368 45.9112 12.4573 45.9153 12.4778 45.9153C13.8068 46.108 15.5131 46.1163 16.9365 46.0219C17.3384 45.9973 17.7486 46.1368 18.0481 46.4485C22.3386 50.8375 28.4913 50.2837 34.6277 49.73C35.485 49.652 36.3422 49.5741 36.9288 49.5249C37.8886 49.1147 38.5859 48.6717 38.7828 48.1631C38.9756 47.6626 38.7049 46.8792 37.7451 45.6815C37.0642 44.8447 37.5031 43.5772 38.5777 43.3762C39.4678 43.2081 40.2267 42.2851 39.8247 41.4853C39.6811 41.1982 39.394 40.9151 38.9264 40.6649C37.6261 40.0127 37.9584 38.2284 39.2504 37.9741C40.9363 37.646 41.3383 36.2021 39.4145 35.7673C38.7828 35.6238 38.3111 35.0618 38.307 34.3891C38.307 33.6057 38.9387 32.9658 39.7221 32.9617C41.5023 32.9535 42.8477 32.4202 42.7739 31.3579C42.7534 31.1158 42.6714 30.8738 42.5278 30.6523C42.1504 30.0576 41.3916 29.6228 40.4113 29.7048C38.467 30.1314 36.4858 30.4801 34.4964 30.7385C32.5398 30.9928 30.5751 31.1569 28.6308 31.2184C28.1263 31.2348 27.634 30.9846 27.3592 30.5211C26.9654 29.8443 27.191 28.9747 27.8679 28.5768C31.5349 26.4233 32.466 22.2067 32.4291 17.9161C32.4291 17.912 32.4291 17.9079 32.4291 17.8997C32.4332 16.7676 31.8302 16.1401 30.9114 16.0539C30.6284 16.0293 30.3372 16.0621 30.0623 16.1524C29.6316 16.2959 29.2789 16.5913 29.1722 17.0178C28.7949 19.9507 26.5142 24.2494 23.6635 27.5555C21.1449 30.4678 18.1096 32.6827 15.3491 32.7238C15.2711 32.7279 15.185 32.7279 15.1029 32.7197C14.459 32.6499 13.856 32.6171 13.294 32.6253C12.7444 32.6294 12.2112 32.6622 11.6984 32.7279C11.6041 32.7484 11.5056 32.7607 11.4031 32.7607C10.6155 32.7607 9.97976 32.1208 9.97976 31.3373V30.5539C9.97976 30.2093 9.69673 29.9263 9.35218 29.9263H3.47425C3.1338 29.9263 2.84667 30.2093 2.84667 30.5539V47.917C2.84667 48.2574 3.1338 48.5445 3.47425 48.5445H9.35218C9.69673 48.5445 9.97976 48.2574 9.97976 47.917V47.1868H9.98386C9.98386 47.1007 9.99206 47.0187 10.0085 46.9366C10.1438 46.1655 10.8822 45.6486 11.6533 45.7881C11.8994 45.8332 12.1537 45.8742 12.4162 45.9071ZM15.267 48.9219C20.0292 54.4758 27.1254 58.6925 34.7138 62.179C61.7695 50.3042 61.5234 34.1348 61.1665 10.9882C61.1378 8.97415 61.105 6.91093 61.0886 4.95846C52.2327 10.742 43.3482 10.6641 34.7015 4.06015C30.0828 7.63285 25.4232 9.69197 20.7225 9.84374C16.473 9.9791 12.2399 8.55576 8.03549 5.2866C8.01088 7.89537 7.95345 10.5205 7.90013 13.035C7.78938 18.1541 7.69094 22.8014 7.89193 27.0755H9.35218C10.9929 27.0755 12.3957 28.2282 12.7444 29.7992C12.9167 29.791 13.0931 29.7869 13.2694 29.7869C13.9503 29.7787 14.6394 29.8115 15.345 29.8853C17.1867 29.8402 19.4837 28.0518 21.5141 25.6973C24.0449 22.7686 26.0466 19.0647 26.3502 16.6405C26.3584 16.5707 26.3748 16.501 26.3912 16.4395C26.7193 14.9095 27.8309 13.8922 29.1722 13.4493C30.4602 13.0268 31.9615 13.158 33.1387 13.8635C34.3734 14.6019 35.2717 15.9309 35.2676 17.8956C35.3004 21.6898 34.6195 25.3241 32.5603 28.1092C35.0297 27.8549 37.4825 27.4488 39.8985 26.9115C39.956 26.8992 40.0093 26.891 40.0626 26.8869V26.8828C42.253 26.6531 44.0127 27.699 44.9233 29.1306C45.7313 30.4062 45.8831 31.9854 45.1325 33.3308C44.7264 34.0487 44.066 34.6885 43.1144 35.1315C43.9757 36.7354 43.463 38.6017 42.0807 39.7297C43.3892 41.6412 42.7534 44.0694 40.9568 45.3697C41.7608 46.83 41.851 48.0769 41.4285 49.1762C40.8871 50.5914 39.5417 51.5348 37.8025 52.2444C37.6507 52.3059 37.499 52.3387 37.3431 52.3469C36.2684 52.429 35.5752 52.4905 34.882 52.5561C28.278 53.1509 21.6577 53.7498 16.4853 48.8932C16.071 48.9137 15.6649 48.9219 15.267 48.9219Z" fill="#3C5167"/>
</svg>
