<svg width="70" height="70" viewBox="0 0 70 70" fill="none" xmlns="http://www.w3.org/2000/svg">
<path d="M35 67.9998C34.8496 67.9998 34.6987 67.9656 34.5601 67.8982C18.0229 59.7996 7.75 45.0828 7.75 29.4929V12.0769C7.75 11.6501 8.02051 11.2712 8.42334 11.1316L34.6733 2.05444C34.8843 1.98218 35.1157 1.98218 35.3267 2.05444L61.5767 11.1316C61.9795 11.2712 62.25 11.6501 62.25 12.0769V29.4929C62.25 45.0828 51.9771 59.7996 35.4399 67.8982C35.3013 67.9656 35.1504 67.9998 35 67.9998ZM9.75 12.7888V29.4929C9.75 44.1765 19.4116 58.0808 35 65.8835C50.5884 58.0808 60.25 44.1765 60.25 29.4929V12.7888L35 4.05737L9.75 12.7888Z" fill="#3C5167"/>
<path d="M45.457 53.4568H24.543C22.5161 53.4568 20.8672 51.8669 20.8672 49.9138V32.4763C20.8672 31.9236 21.3149 31.4763 21.8672 31.4763H48.1328C48.6851 31.4763 49.1328 31.9236 49.1328 32.4763V49.9138C49.1328 51.8669 47.4839 53.4568 45.457 53.4568ZM22.8672 33.4763V49.9138C22.8672 50.7644 23.6191 51.4568 24.543 51.4568H45.457C46.3809 51.4568 47.1328 50.7644 47.1328 49.9138V33.4763H22.8672Z" fill="#3C5167"/>
<path d="M44.0825 33.4763H25.9175C25.3652 33.4763 24.9175 33.0291 24.9175 32.4763V24.4138C24.9175 18.8542 29.4404 14.3318 35 14.3318C40.5596 14.3318 45.0825 18.8542 45.0825 24.4138V32.4763C45.0825 33.0291 44.6348 33.4763 44.0825 33.4763ZM26.9175 31.4763H43.0825V24.4138C43.0825 19.9578 39.4565 16.3318 35 16.3318C30.5435 16.3318 26.9175 19.9578 26.9175 24.4138V31.4763ZM38.3384 48.7654H31.9395C31.6323 48.7654 31.3423 48.6238 31.1523 48.3826C30.9629 48.1404 30.895 47.825 30.9683 47.5271L31.8535 43.9246C30.8223 42.9998 30.2241 41.6794 30.2241 40.2732C30.2241 37.5632 32.4292 35.3582 35.1392 35.3582C37.8491 35.3582 40.0537 37.5632 40.0537 40.2732C40.0537 41.6794 39.4556 42.9998 38.4243 43.9246L39.3096 47.5271C39.3828 47.825 39.3149 48.1404 39.1255 48.3826C38.9355 48.6238 38.6455 48.7654 38.3384 48.7654ZM33.2148 46.7654H37.063L36.3276 43.7732C36.2271 43.364 36.3945 42.9353 36.7461 42.7019C37.5649 42.158 38.0537 41.2507 38.0537 40.2732C38.0537 38.6658 36.7461 37.3582 35.1392 37.3582C33.5317 37.3582 32.2241 38.6658 32.2241 40.2732C32.2241 41.2507 32.7129 42.158 33.5317 42.7019C33.8833 42.9353 34.0508 43.364 33.9502 43.7732L33.2148 46.7654Z" fill="#3C5167"/>
</svg>
