<svg width="68" height="68" viewBox="0 0 68 68" fill="none" xmlns="http://www.w3.org/2000/svg">
<path d="M64.6985 16.392C64.6532 16.111 64.4996 15.8576 64.2693 15.6836C64.039 15.5096 63.7494 15.4282 63.4597 15.4561C62.1435 15.5802 60.9268 16.1949 60.062 17.1725C59.1971 18.1501 58.7506 19.4157 58.815 20.7065L59.0206 28.9278C57.9147 29.0353 56.8559 29.4199 55.9466 30.0444C55.0373 30.6688 54.3082 31.512 53.8298 32.4925L50.756 38.8007C50.2778 39.7787 49.5808 40.6391 48.7165 41.3183L48.0775 41.8191C46.4756 43.0684 45.1992 44.6707 44.3528 46.4949C43.5064 48.3191 43.1141 50.3132 43.208 52.3141L41.952 51.7296C41.6787 51.6024 41.3647 51.5865 41.0794 51.6855C40.794 51.7845 40.5605 51.9902 40.4303 52.2574L37.0598 59.1746C36.9296 59.4418 36.9133 59.7486 37.0146 60.0275C37.1158 60.3065 37.3263 60.5346 37.5997 60.6619L53.1303 67.8913C53.2657 67.9544 53.4124 67.9908 53.5622 67.9985C53.7119 68.0061 53.8617 67.9848 54.0031 67.9358C54.1444 67.8868 54.2745 67.8111 54.3858 67.7129C54.4972 67.6148 54.5876 67.4961 54.6521 67.3638L58.0228 60.4465C58.0873 60.3142 58.1244 60.1708 58.1322 60.0244C58.14 59.8781 58.1182 59.7316 58.068 59.5935C58.0179 59.4554 57.9404 59.3283 57.84 59.2194C57.7396 59.1105 57.6182 59.0221 57.4828 58.9591L56.8203 58.6506L56.6548 56.4868C56.5885 55.6414 56.8611 54.804 57.4149 54.1515L65.4575 44.639C65.4738 44.6199 65.4894 44.6001 65.5042 44.5799C67.1621 42.3175 68.0362 39.5962 67.9989 36.8137C67.998 36.7608 67.9932 36.7081 67.9846 36.6559L64.6985 16.392ZM53.0815 65.3964L39.6124 59.1266L42.0013 54.2244L55.4703 60.4944L53.0815 65.3964ZM63.6716 43.2467L55.654 52.7298C54.7236 53.8262 54.2657 55.2331 54.377 56.6533L54.4454 57.5453L45.6179 53.436C45.3097 51.6007 45.5074 49.7183 46.1908 47.9825C46.8741 46.2468 48.0184 44.7204 49.5059 43.5604L50.1447 43.0596C51.2775 42.1696 52.191 41.042 52.8176 39.7603L55.8915 33.4522C56.2825 32.6517 56.9295 31.9974 57.7347 31.5881C58.5399 31.1789 59.4595 31.0369 60.3546 31.1837L55.8611 40.4054C55.7341 40.6722 55.7201 40.9772 55.8221 41.254C55.924 41.5308 56.1337 41.7571 56.4055 41.8836C56.6772 42.0101 56.9891 42.0266 57.2733 41.9295C57.5574 41.8323 57.7908 41.6295 57.9227 41.365L62.9751 30.9958C63.1053 30.7286 63.1216 30.4217 63.0203 30.1428C62.919 29.8639 62.7085 29.6357 62.4351 29.5085C62.0733 29.3404 61.6962 29.2056 61.3088 29.1059L61.0972 20.6384C61.0972 20.6287 61.0972 20.6189 61.0962 20.6093C61.0676 20.0715 61.1982 19.537 61.4726 19.07C61.7469 18.603 62.1532 18.2232 62.6427 17.9761L65.7166 36.9251C65.7301 39.1896 65.015 41.401 63.6725 43.2467H63.6716Z" fill="#3C5167"/>
<path d="M27.5699 52.2574C27.4396 51.9902 27.2062 51.7844 26.9208 51.6855C26.6354 51.5865 26.3215 51.6024 26.0481 51.7296L24.7922 52.3141C24.886 50.3132 24.4937 48.319 23.6473 46.4948C22.8009 44.6706 21.5245 43.0682 19.9226 41.8189L19.2837 41.3184C18.4194 40.6391 17.7224 39.7787 17.2442 38.8006L14.1702 32.4923C13.6918 31.5119 12.9627 30.6688 12.0534 30.0443C11.1441 29.4199 10.0853 29.0354 8.97948 28.9279L9.18501 20.7065C9.24944 19.4157 8.80291 18.1501 7.93808 17.1725C7.07324 16.1949 5.8565 15.5802 4.54034 15.4561C4.25071 15.4284 3.96119 15.5099 3.73094 15.6838C3.50069 15.8578 3.34708 16.1111 3.3015 16.392L0.0154194 36.6559C0.00681207 36.7081 0.00204233 36.7608 0.00114697 36.8136C-0.0361698 39.5962 0.837966 42.3175 2.49582 44.5799C2.51009 44.6001 2.52622 44.6199 2.54249 44.639L10.5851 54.1514C11.1391 54.8039 11.4118 55.6414 11.3456 56.4868L11.1799 58.6506L10.5173 58.9591C10.382 59.0221 10.2606 59.1105 10.1602 59.2194C10.0598 59.3282 9.9823 59.4554 9.93217 59.5935C9.88203 59.7316 9.86022 59.878 9.86798 60.0244C9.87574 60.1708 9.91293 60.3142 9.97741 60.4465L13.348 67.3638C13.4124 67.4961 13.5029 67.6148 13.6142 67.7129C13.7256 67.8111 13.8556 67.8868 13.997 67.9358C14.1383 67.9848 14.2881 68.0061 14.4379 67.9985C14.5876 67.9908 14.7344 67.9544 14.8697 67.8913L30.4005 60.6619C30.6739 60.5346 30.8843 60.3064 30.9856 60.0275C31.0869 59.7486 31.0706 59.4418 30.9404 59.1746L27.5699 52.2574ZM12.3458 52.7298L4.32782 43.2467C2.98531 41.401 2.27025 39.1896 2.28373 36.9251L5.35715 17.976C5.84673 18.223 6.25303 18.6028 6.52734 19.0699C6.80164 19.5369 6.93232 20.0713 6.90371 20.6091C6.90371 20.6188 6.90371 20.6285 6.90271 20.6383L6.69105 29.1057C6.30367 29.2055 5.92663 29.3403 5.56481 29.5083C5.29141 29.6356 5.08091 29.8637 4.97963 30.1427C4.87834 30.4216 4.89457 30.7284 5.02475 30.9956L10.0772 41.3649C10.1408 41.4985 10.2308 41.6186 10.3422 41.718C10.4535 41.8175 10.5839 41.8944 10.7258 41.9443C10.8677 41.9942 11.0183 42.0162 11.1689 42.0089C11.3196 42.0016 11.4672 41.9652 11.6034 41.9018C11.7396 41.8384 11.8615 41.7493 11.9623 41.6396C12.063 41.5299 12.1405 41.4018 12.1903 41.2626C12.2401 41.1235 12.2611 40.9761 12.2523 40.8289C12.2435 40.6818 12.2049 40.5378 12.1388 40.4053L7.64573 31.1837C8.54076 31.037 9.4603 31.179 10.2655 31.5883C11.0706 31.9975 11.7177 32.6517 12.1088 33.452L15.1827 39.7602C15.8093 41.042 16.7229 42.1697 17.8556 43.0598L18.4943 43.5603C19.9818 44.7202 21.1261 46.2466 21.8095 47.9824C22.4929 49.7182 22.6906 51.6007 22.3824 53.436L13.5544 57.5453L13.6227 56.6533C13.7341 55.2331 13.2762 53.8262 12.3458 52.7298ZM14.9188 65.3961L12.53 60.4941L25.999 54.2241L28.3879 59.1263L14.9188 65.3961Z" fill="#3C5167"/>
<path d="M39.2809 34.1254V29.1512C42.9917 27.2916 45.2526 23.687 45.2526 19.7786C45.2548 18.3516 44.9554 16.9395 44.3732 15.6308C43.7909 14.3222 42.9383 13.1452 41.8689 12.1736C40.723 11.1293 39.3715 10.324 37.8968 9.80681C36.4221 9.28958 34.8551 9.07124 33.2912 9.1651C30.4668 9.32444 27.8049 10.5078 25.8259 12.4839C23.8657 14.4147 22.7599 17.021 22.7468 19.7411C22.7318 23.698 25.0085 27.3053 28.7193 29.1239V34.1254C28.715 34.5299 28.793 34.9311 28.9488 35.3058C29.1046 35.6805 29.335 36.0212 29.6267 36.308C29.9184 36.5949 30.2655 36.8222 30.6479 36.9768C31.0303 37.1313 31.4403 37.21 31.8541 37.2083H36.1458C36.5597 37.2101 36.9697 37.1314 37.3521 36.9768C37.7345 36.8223 38.0817 36.595 38.3734 36.3081C38.6652 36.0212 38.8956 35.6805 39.0514 35.3058C39.2072 34.9311 39.2852 34.5299 39.2809 34.1254ZM25.0072 19.749C25.0291 17.6076 25.9095 15.56 27.4592 14.0461C29.0426 12.4663 31.1719 11.5204 33.4308 11.3931C33.616 11.3825 33.8007 11.3772 33.9849 11.3772C36.3327 11.3688 38.5957 12.2342 40.3142 13.7977C41.1579 14.5607 41.8312 15.4858 42.2922 16.5149C42.7531 17.5441 42.9917 18.6551 42.993 19.7786C42.993 23.0428 40.9013 26.0462 37.7008 27.4307C37.4958 27.517 37.3205 27.6591 37.1958 27.84C37.0711 28.021 37.0022 28.2331 36.9973 28.4512V29.257H31.0029V28.4146C30.998 28.1939 30.9276 27.9794 30.8002 27.7972C30.6728 27.615 30.494 27.4729 30.2855 27.3883C27.0816 26.0509 24.9951 23.0523 25.0072 19.749ZM36.1458 34.9764H31.8541C31.7401 34.9784 31.6269 34.9577 31.5214 34.9154C31.4159 34.8731 31.3203 34.8102 31.2406 34.7305C31.1609 34.6508 31.0987 34.556 31.0578 34.452C31.0169 34.3479 30.9983 34.2368 31.0029 34.1254V31.4889H36.9973V34.1254C37.002 34.2368 36.9833 34.3479 36.9424 34.452C36.9015 34.5561 36.8393 34.6508 36.7595 34.7305C36.6798 34.8102 36.5842 34.8731 36.4787 34.9154C36.3731 34.9577 36.2599 34.9784 36.1458 34.9764Z" fill="#3C5167"/>
<path d="M34.0002 7.09705C34.303 7.09705 34.5934 6.97947 34.8076 6.77018C35.0217 6.5609 35.142 6.27705 35.142 5.98107V1.11598C35.142 0.82 35.0217 0.536148 34.8076 0.326862C34.5934 0.117576 34.303 0 34.0002 0C33.6974 0 33.4069 0.117576 33.1928 0.326862C32.9787 0.536148 32.8584 0.82 32.8584 1.11598V5.98107C32.8584 6.27705 32.9787 6.5609 33.1928 6.77018C33.4069 6.97947 33.6974 7.09705 34.0002 7.09705Z" fill="#3C5167"/>
<path d="M14.6458 20.4686H19.8266C20.1295 20.4686 20.4199 20.3511 20.634 20.1418C20.8481 19.9325 20.9684 19.6486 20.9684 19.3527C20.9684 19.0567 20.8481 18.7728 20.634 18.5636C20.4199 18.3543 20.1295 18.2367 19.8266 18.2367H14.6458C14.3429 18.2367 14.0525 18.3543 13.8384 18.5636C13.6243 18.7728 13.504 19.0567 13.504 19.3527C13.504 19.6486 13.6243 19.9325 13.8384 20.1418C14.0525 20.3511 14.3429 20.4686 14.6458 20.4686Z" fill="#3C5167"/>
<path d="M47.0322 19.3527C47.0322 19.6486 47.1525 19.9325 47.3666 20.1418C47.5808 20.3511 47.8712 20.4686 48.174 20.4686H53.3549C53.6577 20.4686 53.9481 20.3511 54.1623 20.1418C54.3764 19.9325 54.4967 19.6486 54.4967 19.3527C54.4967 19.0567 54.3764 18.7728 54.1623 18.5636C53.9481 18.3543 53.6577 18.2367 53.3549 18.2367H48.174C47.8712 18.2367 47.5808 18.3543 47.3666 18.5636C47.1525 18.7728 47.0322 19.0567 47.0322 19.3527Z" fill="#3C5167"/>
<path d="M23.2257 10.6823C23.4459 10.8829 23.7382 10.9905 24.039 10.9816C24.3399 10.9727 24.625 10.848 24.8323 10.6347C25.0396 10.4214 25.1524 10.1367 25.146 9.84257C25.1397 9.54844 25.0147 9.26866 24.7984 9.06409L21.1101 5.63902C20.8906 5.43516 20.5972 5.3249 20.2945 5.33249C19.9917 5.34008 19.7045 5.46489 19.4959 5.67947C19.2874 5.89405 19.1746 6.18083 19.1823 6.4767C19.1901 6.77258 19.3178 7.05333 19.5373 7.25718L23.2257 10.6823Z" fill="#3C5167"/>
<path d="M43.9882 10.9891C44.2809 10.9895 44.5626 10.8796 44.7745 10.6823L48.4629 7.25718C48.5716 7.15624 48.6589 7.03537 48.7198 6.90145C48.7807 6.76754 48.8141 6.62321 48.8179 6.4767C48.8218 6.3302 48.796 6.18439 48.7422 6.0476C48.6884 5.91081 48.6076 5.78572 48.5043 5.67947C48.401 5.57322 48.2774 5.48789 48.1403 5.42836C48.0033 5.36882 47.8557 5.33625 47.7058 5.33249C47.5559 5.32873 47.4067 5.35387 47.2667 5.40646C47.1268 5.45906 46.9988 5.53808 46.8901 5.63902L43.2018 9.06409C43.0363 9.21778 42.9217 9.41646 42.8729 9.63445C42.824 9.85244 42.8432 10.0797 42.9278 10.287C43.0125 10.4942 43.1588 10.6719 43.3478 10.7971C43.5368 10.9222 43.7599 10.9891 43.9882 10.9891Z" fill="#3C5167"/>
</svg>
